<mxfile host="app.diagrams.net" modified="2023-06-19T02:28:58.418Z" agent="Mozilla/5.0 (Windows NT 10.0; Win64; x64) AppleWebKit/537.36 (KHTML, like Gecko) Chrome/114.0.0.0 Safari/537.36" etag="iHCTbafyF4De-E_hQqPx" version="21.5.0" type="github">
  <diagram name="Page-1" id="zlFHnYhMQfhvoBvas2k-">
    <mxGraphModel dx="1050" dy="483" grid="1" gridSize="10" guides="1" tooltips="1" connect="1" arrows="1" fold="1" page="1" pageScale="1" pageWidth="827" pageHeight="1169" math="0" shadow="0">
      <root>
        <mxCell id="0" />
        <mxCell id="1" parent="0" />
        <mxCell id="di6XecQkxX6BYgbK32oK-7" style="edgeStyle=orthogonalEdgeStyle;rounded=0;orthogonalLoop=1;jettySize=auto;html=1;entryX=0.5;entryY=0;entryDx=0;entryDy=0;" edge="1" parent="1" source="di6XecQkxX6BYgbK32oK-1" target="di6XecQkxX6BYgbK32oK-2">
          <mxGeometry relative="1" as="geometry" />
        </mxCell>
        <mxCell id="di6XecQkxX6BYgbK32oK-17" value="Processed data" style="edgeLabel;html=1;align=center;verticalAlign=middle;resizable=0;points=[];" vertex="1" connectable="0" parent="di6XecQkxX6BYgbK32oK-7">
          <mxGeometry x="-0.32" y="-1" relative="1" as="geometry">
            <mxPoint as="offset" />
          </mxGeometry>
        </mxCell>
        <mxCell id="di6XecQkxX6BYgbK32oK-11" style="edgeStyle=orthogonalEdgeStyle;rounded=0;orthogonalLoop=1;jettySize=auto;html=1;" edge="1" parent="1" source="di6XecQkxX6BYgbK32oK-1">
          <mxGeometry relative="1" as="geometry">
            <mxPoint x="230" y="290" as="targetPoint" />
            <Array as="points">
              <mxPoint x="230" y="290" />
            </Array>
          </mxGeometry>
        </mxCell>
        <mxCell id="di6XecQkxX6BYgbK32oK-12" value="Add new users" style="edgeLabel;html=1;align=center;verticalAlign=middle;resizable=0;points=[];" vertex="1" connectable="0" parent="di6XecQkxX6BYgbK32oK-11">
          <mxGeometry x="-0.1258" y="3" relative="1" as="geometry">
            <mxPoint as="offset" />
          </mxGeometry>
        </mxCell>
        <mxCell id="di6XecQkxX6BYgbK32oK-14" style="edgeStyle=orthogonalEdgeStyle;rounded=0;orthogonalLoop=1;jettySize=auto;html=1;entryX=1;entryY=0.5;entryDx=0;entryDy=0;" edge="1" parent="1" source="di6XecQkxX6BYgbK32oK-1" target="di6XecQkxX6BYgbK32oK-4">
          <mxGeometry relative="1" as="geometry" />
        </mxCell>
        <mxCell id="di6XecQkxX6BYgbK32oK-15" value="Change user creds" style="edgeLabel;html=1;align=center;verticalAlign=middle;resizable=0;points=[];" vertex="1" connectable="0" parent="di6XecQkxX6BYgbK32oK-14">
          <mxGeometry x="-0.1969" y="-3" relative="1" as="geometry">
            <mxPoint x="-8" y="3" as="offset" />
          </mxGeometry>
        </mxCell>
        <mxCell id="di6XecQkxX6BYgbK32oK-1" value="main.py" style="ellipse;whiteSpace=wrap;html=1;aspect=fixed;" vertex="1" parent="1">
          <mxGeometry x="360" y="220" width="80" height="80" as="geometry" />
        </mxCell>
        <mxCell id="di6XecQkxX6BYgbK32oK-2" value="Web page (HTML)" style="whiteSpace=wrap;html=1;aspect=fixed;" vertex="1" parent="1">
          <mxGeometry x="360" y="400" width="80" height="80" as="geometry" />
        </mxCell>
        <mxCell id="di6XecQkxX6BYgbK32oK-8" style="edgeStyle=orthogonalEdgeStyle;rounded=0;orthogonalLoop=1;jettySize=auto;html=1;entryX=0.5;entryY=0;entryDx=0;entryDy=0;" edge="1" parent="1" source="di6XecQkxX6BYgbK32oK-3" target="di6XecQkxX6BYgbK32oK-1">
          <mxGeometry relative="1" as="geometry" />
        </mxCell>
        <mxCell id="di6XecQkxX6BYgbK32oK-16" value="match/player/team data" style="edgeLabel;html=1;align=center;verticalAlign=middle;resizable=0;points=[];" vertex="1" connectable="0" parent="di6XecQkxX6BYgbK32oK-8">
          <mxGeometry x="-0.2889" y="-1" relative="1" as="geometry">
            <mxPoint as="offset" />
          </mxGeometry>
        </mxCell>
        <mxCell id="di6XecQkxX6BYgbK32oK-3" value="VLR.gg api" style="whiteSpace=wrap;html=1;aspect=fixed;" vertex="1" parent="1">
          <mxGeometry x="360" y="50" width="80" height="80" as="geometry" />
        </mxCell>
        <mxCell id="di6XecQkxX6BYgbK32oK-10" style="edgeStyle=orthogonalEdgeStyle;rounded=0;orthogonalLoop=1;jettySize=auto;html=1;entryX=0.005;entryY=0.263;entryDx=0;entryDy=0;entryPerimeter=0;exitX=1;exitY=0.25;exitDx=0;exitDy=0;" edge="1" parent="1" source="di6XecQkxX6BYgbK32oK-4" target="di6XecQkxX6BYgbK32oK-1">
          <mxGeometry relative="1" as="geometry">
            <Array as="points">
              <mxPoint x="295" y="240" />
            </Array>
          </mxGeometry>
        </mxCell>
        <mxCell id="di6XecQkxX6BYgbK32oK-13" value="Check user creds" style="edgeLabel;html=1;align=center;verticalAlign=middle;resizable=0;points=[];" vertex="1" connectable="0" parent="di6XecQkxX6BYgbK32oK-10">
          <mxGeometry x="0.2299" y="-4" relative="1" as="geometry">
            <mxPoint x="-20" y="-5" as="offset" />
          </mxGeometry>
        </mxCell>
        <mxCell id="di6XecQkxX6BYgbK32oK-4" value="users database" style="whiteSpace=wrap;html=1;aspect=fixed;" vertex="1" parent="1">
          <mxGeometry x="150" y="220" width="80" height="80" as="geometry" />
        </mxCell>
      </root>
    </mxGraphModel>
  </diagram>
</mxfile>
